<svg width="18" height="20" viewBox="0 0 18 20" fill="none" xmlns="http://www.w3.org/2000/svg">
<path d="M2.25 0.75C1.78587 0.75 1.34075 0.934374 1.01256 1.26256C0.684374 1.59075 0.5 2.03587 0.5 2.5V16.5C0.5 17.4713 1.27875 18.25 2.25 18.25H7.5V16.5H2.25V2.5H8.375V6.875H12.75V9.5H14.5V6L9.25 0.75M12.75 11.25C12.6965 11.249 12.6444 11.2669 12.6028 11.3005C12.5612 11.3341 12.5328 11.3813 12.5225 11.4338L12.3562 12.5887C12.0937 12.7025 11.84 12.8425 11.6125 13L10.5275 12.5625C10.4312 12.5625 10.3175 12.5625 10.2562 12.6763L9.38125 14.19C9.32875 14.2863 9.34625 14.4 9.43375 14.47L10.3612 15.1875C10.3264 15.4781 10.3264 15.7719 10.3612 16.0625L9.43375 16.78C9.39443 16.8137 9.36779 16.8599 9.35825 16.9108C9.3487 16.9617 9.35682 17.0143 9.38125 17.06L10.2562 18.5738C10.3087 18.6875 10.4225 18.6875 10.5275 18.6875L11.6125 18.25C11.84 18.4075 12.085 18.5562 12.3562 18.6612L12.5225 19.8162C12.54 19.9213 12.6275 20 12.75 20H14.5C14.5962 20 14.6925 19.9213 14.71 19.8162L14.8762 18.6612C15.1387 18.5475 15.375 18.4075 15.6112 18.25L16.6875 18.6875C16.8012 18.6875 16.915 18.6875 16.9762 18.5738L17.8512 17.06C17.8757 17.0143 17.8838 16.9617 17.8743 16.9108C17.8647 16.8599 17.8381 16.8137 17.7987 16.78L16.8625 16.0625C16.88 15.9137 16.8975 15.7738 16.8975 15.625C16.8975 15.4762 16.8888 15.3363 16.8625 15.1875L17.79 14.47C17.8293 14.4363 17.856 14.3901 17.8655 14.3392C17.875 14.2883 17.8669 14.2357 17.8425 14.19L16.9675 12.6763C16.915 12.5625 16.8012 12.5625 16.6875 12.5625L15.6112 13C15.375 12.8425 15.1387 12.6937 14.8675 12.5887L14.7012 11.4338C14.6957 11.3839 14.6723 11.3378 14.6352 11.304C14.5982 11.2702 14.5501 11.251 14.5 11.25M13.625 14.3125C14.3512 14.3125 14.9375 14.8988 14.9375 15.625C14.9375 16.3512 14.3512 16.9375 13.625 16.9375C12.89 16.9375 12.3125 16.3512 12.3125 15.625C12.3125 14.8988 12.8987 14.3125 13.625 14.3125Z" fill="black"/>
</svg>
