<svg width="18" height="20" viewBox="0 0 18 20" fill="none" xmlns="http://www.w3.org/2000/svg">
<path d="M4.15875 6.69769C4.02629 6.83013 3.85006 6.9097 3.66312 6.92145C3.47618 6.93321 3.29137 6.87635 3.14336 6.76154L3.07106 6.69769L0.763364 4.39C0.63092 4.25754 0.551358 4.08131 0.539603 3.89437C0.527848 3.70743 0.584709 3.52262 0.699518 3.37461L0.763364 3.30231L3.07106 0.994615C3.20351 0.862171 3.37974 0.782609 3.56669 0.770854C3.75363 0.759099 3.93844 0.81596 4.08644 0.930768L4.15875 0.994615L6.24183 3.07692H13.5803L13.7495 3.08077C14.7479 3.12525 15.6906 3.55314 16.3813 4.27534C17.072 4.99753 17.4576 5.95835 17.4576 6.95769C17.4576 7.95703 17.072 8.91785 16.3813 9.64004C15.6906 10.3622 14.7479 10.7901 13.7495 10.8346L13.5803 10.8377L11.558 10.8369L9.54336 12.8523C9.41081 12.9846 9.23453 13.0641 9.04759 13.0757C8.86065 13.0873 8.67589 13.0303 8.52798 12.9154L8.45567 12.8515L6.44029 10.8369H4.35029L4.21644 10.8415C3.63846 10.8768 3.09572 11.1313 2.69894 11.5531C2.30216 11.9748 2.08124 12.5321 2.08124 13.1112C2.08124 13.6902 2.30216 14.2475 2.69894 14.6692C3.09572 15.091 3.63846 15.3455 4.21644 15.3808L4.35029 15.3846H13.6149V13.8462C13.6149 13.1908 14.3734 12.8485 14.8634 13.2438L14.928 13.3023L17.2357 15.61C17.3681 15.7425 17.4477 15.9187 17.4594 16.1056C17.4712 16.2926 17.4143 16.4774 17.2995 16.6254L17.2357 16.6977L14.928 19.0054C14.4649 19.4692 13.6864 19.1746 13.6195 18.5492L13.6149 18.4615V16.9231H4.35029L4.1849 16.9192C3.20445 16.8752 2.27876 16.4546 1.60053 15.7453C0.922306 15.0359 0.543798 14.0922 0.543798 13.1108C0.543798 12.1293 0.922306 11.1857 1.60053 10.4763C2.27876 9.76688 3.20445 9.34638 4.1849 9.30231L4.35029 9.29923L6.30413 9.29846L8.45567 7.14846C8.58813 7.01602 8.76436 6.93645 8.9513 6.9247C9.13824 6.91295 9.32305 6.96981 9.47106 7.08461L9.54336 7.14846L11.6941 9.29846H13.5811L13.718 9.29538C14.3138 9.25953 14.8734 8.99758 15.2825 8.56305C15.6917 8.12851 15.9196 7.55417 15.9196 6.95731C15.9196 6.36045 15.6917 5.7861 15.2825 5.35157C14.8734 4.91703 14.3138 4.65509 13.718 4.61923L13.5811 4.61538H6.24106L4.15875 6.69769Z" fill="black"/>
</svg>
