<svg width="13" height="15" viewBox="0 0 13 15" fill="none" xmlns="http://www.w3.org/2000/svg">
<path d="M12.1842 6.37037L4.62775 14.1404C4.41775 14.3556 4.0695 14.1062 4.206 13.8385L6.89575 8.53075C6.91612 8.49069 6.92587 8.44607 6.92406 8.40117C6.92225 8.35626 6.90894 8.31257 6.8854 8.27429C6.86187 8.236 6.8289 8.2044 6.78965 8.1825C6.7504 8.16061 6.70619 8.14916 6.66125 8.14925H1.0035C0.951823 8.14921 0.901309 8.13391 0.858288 8.10529C0.815266 8.07666 0.781652 8.03597 0.761657 7.98832C0.741662 7.94067 0.736177 7.88817 0.745888 7.83742C0.755599 7.78666 0.780076 7.7399 0.816249 7.703L7.825 0.602375C8.028 0.39675 8.36575 0.6225 8.25287 0.889375L6.243 5.6275C6.22598 5.66767 6.21924 5.71145 6.22339 5.75487C6.22755 5.7983 6.24246 5.84001 6.26677 5.87623C6.29109 5.91244 6.32406 5.94203 6.36268 5.96231C6.40131 5.98259 6.44438 5.99292 6.488 5.99237L11.9926 5.92412C12.0446 5.92329 12.0956 5.93789 12.1392 5.96607C12.1829 5.99426 12.2172 6.03476 12.2378 6.08244C12.2584 6.13013 12.2644 6.18287 12.255 6.23397C12.2457 6.28507 12.2213 6.33224 12.1851 6.3695" fill="black"/>
</svg>
