<svg width="73" height="72" viewBox="0 0 73 72" fill="none" xmlns="http://www.w3.org/2000/svg">
<rect x="0.956543" width="72" height="72" rx="16" fill="#A3D1C6"/>
<path d="M62.2663 46.6464L62.2772 46.6413H62.2559L49.7436 40.8833L37.2105 35.1152L24.6769 40.8833L12.1646 46.6413H12.1433L12.1542 46.6464L12.1433 46.6515H12.1646L24.6769 52.4094L37.2105 58.1775L49.7436 52.4094L62.2559 46.6515H62.2772L62.2663 46.6464Z" fill="white"/>
<path d="M62.2663 24.5312L62.2772 24.5265H62.2559L49.7436 18.7681L37.2105 13L24.6769 18.7681L12.1646 24.5265H12.1433L12.1542 24.5312L12.1433 24.5362H12.1646L24.6769 30.2946L37.2105 36.0627L49.7436 30.2946L62.2559 24.5362H62.2772L62.2663 24.5312Z" fill="#46A092"/>
<path d="M12.6189 24V47.0526L37.6648 35.5265L12.6189 24Z" fill="#46A092"/>
<path d="M62.2559 24.0625V47.1151L37.2104 35.589L62.2559 24.0625Z" fill="#46A092"/>
</svg>
